<svg id="Ebene_1" data-name="Ebene 1" xmlns="http://www.w3.org/2000/svg" viewBox="0 0 397.47 397.47"><defs><style>.cls-1{fill:#42625f;}</style></defs><path class="cls-1" d="M619.68,322.44q0,45.33,0,90.67a106.75,106.75,0,0,1-1.16,15.35,109.56,109.56,0,0,1-3.14,14.79,103.2,103.2,0,0,1-7.19,18.3,111.63,111.63,0,0,1-12,18.77,109.85,109.85,0,0,1-11.43,12.28,103.55,103.55,0,0,1-18.53,13.69,98.36,98.36,0,0,1-21.48,9.58c-5.05,1.49-10.19,2.71-15.34,3.79a56.83,56.83,0,0,1-9,1c-6.32.27-12.65.48-19,.49q-85,0-170,0a112.75,112.75,0,0,1-16.2-1.16,108.93,108.93,0,0,1-15.8-3.4,103.81,103.81,0,0,1-19.93-8.23,91.14,91.14,0,0,1-15.57-10.27c-3.78-3.19-7.57-6.4-11-9.89a101.66,101.66,0,0,1-14.53-18.68,106.69,106.69,0,0,1-11.05-24.29,103,103,0,0,1-3.57-15.52,95.06,95.06,0,0,1-1.19-13.79c0-4.46-.21-8.93-.21-13.39q0-85,0-170c0-4.57.51-9.16.93-13.72a95.37,95.37,0,0,1,5.27-22.92,90.08,90.08,0,0,1,8.11-17.55c2.37-3.82,4.72-7.67,7.35-11.31,2.1-2.9,4.57-5.53,7-8.22,1.55-1.76,3.15-3.49,4.86-5.1a110.89,110.89,0,0,1,19.2-14.6,98.81,98.81,0,0,1,23.87-10.54,140.89,140.89,0,0,1,14.61-3.32c4.26-.72,8.62-.94,12.94-1.24,3-.21,6-.25,8.94-.25q88.51,0,177,0c4.18,0,8.35.55,12.52.92a92,92,0,0,1,20.37,4.41A109.81,109.81,0,0,1,577,145.78c2.22,1.69,4.36,3.5,6.45,5.35,1.85,1.64,3.63,3.35,5.36,5.11a106,106,0,0,1,15.37,19.82,107.8,107.8,0,0,1,10.53,23.23,86.74,86.74,0,0,1,3.56,15.39c.49,4,.88,8,1.2,12,.19,2.46.24,4.93.25,7.39Q619.68,278.25,619.68,322.44ZM519.42,328.2c-.12-28.74-10.08-53.09-28.41-71.53-19.23-19.34-42.75-29.19-69.95-29.24-27-.06-50.49,9.67-69.64,28.77-17.6,17.55-27.33,39-28.63,63.91-1.49,28.41,7.52,53.3,27.22,73.85,18.62,19.44,41.77,29.58,68.68,30.21,26.63.61,50.05-8.24,69.5-26.49C508.84,378.3,519,354.09,519.42,328.2Zm49.16-125.66a32.89,32.89,0,1,0-34,32.94C553.88,236,568.93,220.48,568.58,202.54Z" transform="translate(-222.21 -123.7)"/><path class="cls-1" d="M353.17,324.79c.22-17.67,6.78-33.76,20-47a67.56,67.56,0,0,1,92.17-3.38c16,14,24,31.85,23.56,53.08-.42,19.2-8,35.5-22.24,48.47a65.53,65.53,0,0,1-47.23,17.66c-18.88-.49-35-7.78-47.93-21.59C359.34,359.11,353.3,343.59,353.17,324.79Z" transform="translate(-222.21 -123.7)"/><path class="cls-1" d="M548.4,202.5a12.69,12.69,0,1,1-12.67-12.71A12.7,12.7,0,0,1,548.4,202.5Z" transform="translate(-222.21 -123.7)"/></svg>