<svg id="Ebene_1" data-name="Ebene 1" xmlns="http://www.w3.org/2000/svg" viewBox="0 0 418.54 299.18"><defs><style>.cls-1{fill:#42625f;}</style></defs><path class="cls-1" d="M614.42,418c-3.53.48-7,1.37-10.57,1.38q-83.67.12-167.33,0-92.68,0-185.38,0c-3.65,0-7.36-.2-11.15-2.21L369.11,269.62c2.38,1.94,4.6,3.65,6.72,5.47q20.43,17.54,40.83,35.11c6.6,5.68,14.92,5.7,21.46.08q19-16.32,38.1-32.58c3.08-2.64,6.13-5.3,9.45-8.17L614.53,416.77Z" transform="translate(-218.16 -120.23)"/><path class="cls-1" d="M243.5,121.18a52.11,52.11,0,0,1,7-.91q176.88-.08,353.77,0a53.62,53.62,0,0,1,7.19.94l.13.76c-1.94,1.73-3.87,3.47-5.84,5.16Q592,139,578.17,150.82c-9.21,7.87-18.49,15.65-27.69,23.54-10.34,8.86-20.59,17.82-30.93,26.69-9.19,7.89-18.46,15.68-27.66,23.57-10.41,8.92-20.75,17.91-31.15,26.85-7,6-14.11,12.06-21.17,18.1-3.15,2.7-6.36,5.35-9.42,8.16-1.87,1.73-3.29,1.92-5.35.08-7-6.22-14.17-12.27-21.29-18.36-9.55-8.16-19.13-16.27-28.67-24.45-10.26-8.81-20.47-17.69-30.74-26.5-9.26-7.94-18.6-15.8-27.87-23.74-10.14-8.69-20.22-17.44-30.36-26.14-9.46-8.11-19-16.16-28.44-24.28-4.74-4.06-9.41-8.2-14.11-12.31Z" transform="translate(-218.16 -120.23)"/><path class="cls-1" d="M634.53,142c2,3.57,2.11,7,2.12,10.42q.09,25.23,0,50.47,0,91.91-.05,183.81c0,2.49-.49,5-.83,8.14a21.18,21.18,0,0,1-2.19-1.76q-21.75-24.89-43.46-49.77c-11.95-13.64-24-27.21-35.91-40.86-10.37-11.85-20.65-23.77-31-35.64-4.24-4.86-8.49-9.72-12.83-14.5-1.47-1.61-1.74-2.58.19-4.21q24.69-20.93,49.2-42.06C572,195.62,584,185.11,596.18,174.68q15.41-13.22,30.88-26.34C629.41,146.34,631.76,144.36,634.53,142Z" transform="translate(-218.16 -120.23)"/><path class="cls-1" d="M220.19,141.85l14.09,12q11.7,10,23.4,20c7.26,6.22,14.48,12.47,21.73,18.69q15.79,13.57,31.61,27.12l27.19,23.3c2.21,1.9,4.37,3.86,6.63,5.71,1.17.95,1.19,1.79.24,2.88q-9.9,11.25-19.75,22.55-12.21,14-24.4,28-11.19,12.78-22.41,25.53-11.81,13.47-23.6,26.94-17,19.45-34,38.94a13.34,13.34,0,0,1-1.74,1.25,68,68,0,0,1-.92-7.81q-.1-38.51-.06-77,0-78.21,0-156.43a54,54,0,0,1,.62-7.39A28,28,0,0,1,220.19,141.85Z" transform="translate(-218.16 -120.23)"/></svg>